<?xml version="1.0" encoding="utf-8"?>
<!-- Generator: Adobe Illustrator 22.1.0, SVG Export Plug-In . SVG Version: 6.00 Build 0)  -->
<svg version="1.1" id="Layer_1" xmlns="http://www.w3.org/2000/svg" xmlns:xlink="http://www.w3.org/1999/xlink" x="0px" y="0px"
	 viewBox="0 0 153 29" style="enable-background:new 0 0 153 29;" xml:space="preserve">
<style type="text/css">
	.st0{fill:#FFC851;}
	.st1{fill:#323648;}
</style>
<title>Logo</title>
<desc>Created with Sketch.</desc>
<g id="Symbols">
	<g id="Main-Menu" transform="translate(-47.000000, -26.000000)">
		<g id="Logo" transform="translate(47.000000, 26.000000)">
			<g id="logo_house">
				<path id="Clip-2" class="st0" d="M18.4,0c-0.3,0-0.6,0.2-0.9,0.4C12,3.6,6.1,7.1,0.5,10.3C0.3,10.5,0,10.6,0,10.8v0
					c0,0.1,0.1,0.3,0.3,0.4c0.7,0.4,1.5,0.9,2.4,1.5c0.8,0.6,1,0.7,1,1.6c-0.1,3.4,0,6.7,0,10.1c0,0.4,0.1,1,0.4,1.2
					c1.1,1.1,2.4,2,3.6,2.2C8,28,7.9,27.5,7.9,27.1C8,22.4,8,16.8,8,12c0-0.8,0.3-1.3,1-1.7c2.9-1.6,5.8-3.3,8.6-5.1
					c0.6-0.3,1-0.4,1.6,0c2.9,1.8,5.8,3.5,8.7,5.1c0.7,0.4,0.9,0.8,0.9,1.6c0,2.7,0.1,5.5,0.1,8.2c0,2.3,0,4.5,0,7
					c0,0.3,0.2,0.6,0.3,0.6c0.8,0.2,2-0.6,3.2-1.9c0.5-0.5,0.9-0.8,0.8-1.5c0-3.4,0-6.9,0-10.3c0-0.7,0.2-1.1,0.9-1.5
					c0.7-0.3,1.9-0.9,2.6-1.3c0.2-0.1,0.3-0.2,0.3-0.4v0c0-0.2-0.1-0.4-0.5-0.5C30.6,7,24.9,3.6,19.1,0.2C18.8,0.1,18.6,0,18.4,0
					L18.4,0z"/>
				<path id="Clip-5" class="st0" d="M16.2,19.1v7.8c0,1.1,1,1.9,2.2,1.9c1.2,0,2.2-0.9,2.2-1.9v-7.8c0-1.1-1-2-2.2-2
					C17.2,17.1,16.2,18,16.2,19.1z"/>
			</g>
			<path id="HOMESHARE" class="st1" d="M57.5,21.3v-4.6h-4.4v4.6h-2.7V10.2h2.7v4.2h4.4v-4.2h2.7v11.1H57.5z M74.2,15.7
				c0,0.9-0.2,1.7-0.5,2.4c-0.3,0.7-0.7,1.3-1.3,1.9s-1.2,0.9-1.9,1.2c-0.8,0.3-1.6,0.4-2.4,0.4c-0.9,0-1.7-0.1-2.4-0.4
				c-0.7-0.3-1.4-0.7-1.9-1.2s-1-1.1-1.3-1.9c-0.3-0.7-0.5-1.5-0.5-2.4c0-0.9,0.2-1.7,0.5-2.4s0.7-1.3,1.3-1.8
				c0.5-0.5,1.2-0.9,1.9-1.2c0.7-0.3,1.6-0.4,2.4-0.4c0.9,0,1.7,0.1,2.4,0.4c0.8,0.3,1.4,0.7,1.9,1.2c0.5,0.5,1,1.1,1.3,1.8
				S74.2,14.8,74.2,15.7z M71.3,15.7c0-0.5-0.1-0.9-0.2-1.3c-0.2-0.4-0.4-0.8-0.7-1.1c-0.3-0.3-0.6-0.5-1-0.7
				c-0.4-0.2-0.8-0.3-1.3-0.3c-0.5,0-0.9,0.1-1.3,0.3c-0.4,0.2-0.7,0.4-1,0.7s-0.5,0.7-0.7,1.1c-0.2,0.4-0.2,0.9-0.2,1.3
				c0,0.5,0.1,1,0.2,1.4s0.4,0.8,0.7,1.1c0.3,0.3,0.6,0.5,1,0.7c0.4,0.2,0.8,0.3,1.3,0.3c0.5,0,0.9-0.1,1.3-0.3
				c0.4-0.2,0.7-0.4,1-0.7c0.3-0.3,0.5-0.7,0.7-1.1C71.2,16.7,71.3,16.2,71.3,15.7z M86.2,21.3l0.1-7.9h0l-2.9,7.9h-1.9l-2.8-7.9h0
				l0.1,7.9H76V10.2h3.9l2.6,7.1h0.1l2.4-7.1h3.9v11.1H86.2z M91.1,21.3V10.2h7.5v2.3h-4.9v2.1h4.7v2.1h-4.7V19H99v2.3H91.1z
				 M106.7,13.1c-0.2-0.3-0.5-0.5-0.9-0.7c-0.4-0.2-0.7-0.3-1.1-0.3c-0.2,0-0.4,0-0.5,0c-0.2,0-0.4,0.1-0.5,0.2
				c-0.1,0.1-0.3,0.2-0.4,0.3s-0.2,0.3-0.2,0.5c0,0.2,0,0.3,0.1,0.5c0.1,0.1,0.2,0.2,0.3,0.3c0.2,0.1,0.3,0.2,0.5,0.3
				s0.4,0.2,0.7,0.2c0.4,0.1,0.8,0.3,1.2,0.4c0.4,0.2,0.8,0.4,1.1,0.6c0.3,0.3,0.6,0.6,0.8,0.9s0.3,0.8,0.3,1.4
				c0,0.6-0.1,1.2-0.4,1.7c-0.2,0.5-0.6,0.8-1,1.2c-0.4,0.3-0.9,0.5-1.4,0.7s-1.1,0.2-1.6,0.2c-0.8,0-1.6-0.1-2.3-0.4
				c-0.8-0.3-1.4-0.7-1.9-1.2l1.8-1.8c0.3,0.3,0.6,0.6,1.1,0.8s0.9,0.3,1.3,0.3c0.2,0,0.4,0,0.6-0.1c0.2,0,0.4-0.1,0.5-0.2
				s0.3-0.2,0.3-0.4s0.1-0.3,0.1-0.6c0-0.2-0.1-0.4-0.2-0.5c-0.1-0.1-0.3-0.3-0.5-0.4c-0.2-0.1-0.4-0.2-0.7-0.3s-0.6-0.2-1-0.3
				c-0.4-0.1-0.7-0.3-1.1-0.4s-0.6-0.4-0.9-0.6c-0.3-0.2-0.5-0.5-0.6-0.9c-0.2-0.4-0.2-0.8-0.2-1.3c0-0.6,0.1-1.1,0.4-1.6
				c0.3-0.4,0.6-0.8,1-1.1c0.4-0.3,0.9-0.5,1.4-0.6c0.5-0.1,1-0.2,1.6-0.2c0.6,0,1.3,0.1,1.9,0.3s1.2,0.6,1.7,1L106.7,13.1z
				 M117.2,21.3v-4.6h-4.4v4.6h-2.7V10.2h2.7v4.2h4.4v-4.2h2.7v11.1H117.2z M129.8,21.3l-0.9-2.2h-4.3l-0.8,2.2h-2.9l4.7-11.1h2.6
				l4.7,11.1H129.8z M126.8,13.2l-1.4,3.8h2.8L126.8,13.2z M139.8,21.3l-2.4-4.4h-0.9v4.4h-2.7V10.2h4.3c0.5,0,1.1,0.1,1.6,0.2
				c0.5,0.1,1,0.3,1.4,0.6c0.4,0.3,0.7,0.6,1,1c0.2,0.4,0.4,1,0.4,1.6c0,0.8-0.2,1.4-0.6,1.9c-0.4,0.5-1,0.9-1.7,1.1l2.9,4.8H139.8z
				 M139.7,13.6c0-0.3-0.1-0.5-0.2-0.6c-0.1-0.2-0.3-0.3-0.4-0.4c-0.2-0.1-0.4-0.1-0.6-0.2c-0.2,0-0.4,0-0.6,0h-1.4V15h1.3
				c0.2,0,0.4,0,0.7-0.1c0.2,0,0.4-0.1,0.6-0.2c0.2-0.1,0.3-0.2,0.5-0.4C139.6,14.1,139.7,13.9,139.7,13.6z M144.3,21.3V10.2h7.5
				v2.3h-4.9v2.1h4.7v2.1h-4.7V19h5.2v2.3H144.3z"/>
		</g>
	</g>
</g>
</svg>
